name analog
datacolumns 19
datarows 49
range 0.616 0.64
endheader
time	ground_force_vx	ground_force_vy	ground_force_vz	ground_force_px	ground_force_py	ground_force_pz	l_ground_force_vx	l_ground_force_vy	l_ground_force_vz	l_ground_force_px	l_ground_force_py	l_ground_force_pz	ground_torque_x	ground_torque_y	ground_torque_z	l_ground_torque_x	l_ground_torque_y	l_ground_torque_z
0.616	-0.0	-0.0	-0.0	-1.8119981288909912	3.133445501327514	-620.7803955078125	-0.0	-0.0	-0.0	-0.0	-0.0	-0.0	-0.0	-0.0	-0.0	-0.0	-0.0	-0.0
0.6165	-0.0	-0.0	-0.0	-2.9370603561401367	2.955063581466675	-621.0266723632812	-0.0	-0.0	-0.0	-0.0	-0.0	-0.0	-0.0	-0.0	-0.0	-0.0	-0.0	-0.0
0.617	-0.0	-0.0	-0.0	-4.131577014923096	2.776656150817871	-621.2974853515625	-0.0	-0.0	-0.0	-0.0	-0.0	-0.0	-0.0	-0.0	-0.0	-0.0	-0.0	-0.0
0.6175	-0.0	-0.0	-0.0	-4.288834571838379	2.7832140922546387	-622.4363403320312	-0.0	-0.0	-0.0	-0.0	-0.0	-0.0	-0.0	-0.0	-0.0	-0.0	-0.0	-0.0
0.618	-0.0	-0.0	-0.0	-5.091670036315918	2.70057225227356	-623.8214721679688	-0.0	-0.0	-0.0	-0.0	-0.0	-0.0	-0.0	-0.0	-0.0	-0.0	-0.0	-0.0
0.6185	-0.0	-0.0	-0.0	-5.200600624084473	3.2152862548828125	-625.533935546875	-0.0	-0.0	-0.0	-0.0	-0.0	-0.0	-0.0	-0.0	-0.0	-0.0	-0.0	-0.0
0.619	-0.0	-0.0	-0.0	-5.84428596496582	2.336916923522949	-625.6364135742188	-0.0	-0.0	-0.0	-0.0	-0.0	-0.0	-0.0	-0.0	-0.0	-0.0	-0.0	-0.0
0.6195	-0.0	-0.0	-0.0	-6.569300174713135	2.3367395401000977	-626.9199829101562	-0.0	-0.0	-0.0	-0.0	-0.0	-0.0	-0.0	-0.0	-0.0	-0.0	-0.0	-0.0
0.62	-0.0	-0.0	-0.0	-6.550612449645996	3.011328220367432	-629.8206787109375	-0.0	-0.0	-0.0	-0.0	-0.0	-0.0	-0.0	-0.0	-0.0	-0.0	-0.0	-0.0
0.6205	-0.0	-0.0	-0.0	-7.041316509246826	2.8710973262786865	-628.0039672851562	-0.0	-0.0	-0.0	-0.0	-0.0	-0.0	-0.0	-0.0	-0.0	-0.0	-0.0	-0.0
0.621	-0.0	-0.0	-0.0	-7.404472351074219	2.7755119800567627	-626.7141723632812	-0.0	-0.0	-0.0	-0.0	-0.0	-0.0	-0.0	-0.0	-0.0	-0.0	-0.0	-0.0
0.6215	-0.0	-0.0	-0.0	-7.64747428894043	2.7814979553222656	-627.880859375	-0.0	-0.0	-0.0	-0.0	-0.0	-0.0	-0.0	-0.0	-0.0	-0.0	-0.0	-0.0
0.622	-0.0	-0.0	-0.0	-7.767412662506103	2.965674877166748	-625.8590087890625	-0.0	-0.0	-0.0	-0.0	-0.0	-0.0	-0.0	-0.0	-0.0	-0.0	-0.0	-0.0
0.6225	-0.0	-0.0	-0.0	-7.517781257629394	2.781100034713745	-624.0928344726562	-0.0	-0.0	-0.0	-0.0	-0.0	-0.0	-0.0	-0.0	-0.0	-0.0	-0.0	-0.0
0.623	-0.0	-0.0	-0.0	-7.261700630187988	2.947239398956299	-623.7158203125	-0.0	-0.0	-0.0	-0.0	-0.0	-0.0	-0.0	-0.0	-0.0	-0.0	-0.0	-0.0
0.6235	-0.0	-0.0	-0.0	-7.660340309143066	3.743476867675781	-622.3263549804688	-0.0	-0.0	-0.0	-0.0	-0.0	-0.0	-0.0	-0.0	-0.0	-0.0	-0.0	-0.0
0.624	-0.0	-0.0	-0.0	-7.321061134338379	4.177540302276611	-620.936279296875	-0.0	-0.0	-0.0	-0.0	-0.0	-0.0	-0.0	-0.0	-0.0	-0.0	-0.0	-0.0
0.6245	-0.0	-0.0	-0.0	-7.637750148773193	3.8211662769317623	-620.1613159179688	-0.0	-0.0	-0.0	-0.0	-0.0	-0.0	-0.0	-0.0	-0.0	-0.0	-0.0	-0.0
0.625	-0.0	-0.0	-0.0	-7.537559986114502	4.00520658493042	-617.02783203125	-0.0	-0.0	-0.0	-0.0	-0.0	-0.0	-0.0	-0.0	-0.0	-0.0	-0.0	-0.0
0.6255000000000001	-0.0	-0.0	-0.0	-7.097755432128906	4.183550357818604	-616.630126953125	-0.0	-0.0	-0.0	-0.0	-0.0	-0.0	-0.0	-0.0	-0.0	-0.0	-0.0	-0.0
0.626	-0.0	-0.0	-0.0	-6.958419799804688	4.562211036682129	-616.5866088867188	-0.0	-0.0	-0.0	-0.0	-0.0	-0.0	-0.0	-0.0	-0.0	-0.0	-0.0	-0.0
0.6265000000000001	-0.0	-0.0	-0.0	-6.261091232299805	5.264140605926514	-614.8430786132812	-0.0	-0.0	-0.0	-0.0	-0.0	-0.0	-0.0	-0.0	-0.0	-0.0	-0.0	-0.0
0.627	-0.0	-0.0	-0.0	-6.328577518463135	5.321004390716553	-613.1416015625	-0.0	-0.0	-0.0	-0.0	-0.0	-0.0	-0.0	-0.0	-0.0	-0.0	-0.0	-0.0
0.6275000000000001	-0.0	-0.0	-0.0	-5.877274036407471	4.996607303619385	-611.3965454101562	-0.0	-0.0	-0.0	-0.0	-0.0	-0.0	-0.0	-0.0	-0.0	-0.0	-0.0	-0.0
0.628	-0.0	-0.0	-0.0	-5.594125747680664	4.8391547203063965	-610.9392700195312	-0.0	-0.0	-0.0	-0.0	-0.0	-0.0	-0.0	-0.0	-0.0	-0.0	-0.0	-0.0
0.6285000000000001	-0.0	-0.0	-0.0	-5.352630615234375	5.526084899902344	-609.62939453125	-0.0	-0.0	-0.0	-0.0	-0.0	-0.0	-0.0	-0.0	-0.0	-0.0	-0.0	-0.0
0.629	-0.0	-0.0	-0.0	-5.421461582183838	5.319777011871338	-609.861083984375	-0.0	-0.0	-0.0	-0.0	-0.0	-0.0	-0.0	-0.0	-0.0	-0.0	-0.0	-0.0
0.6295000000000001	-0.0	-0.0	-0.0	-5.005812168121338	5.694331169128418	-610.5488891601562	-0.0	-0.0	-0.0	-0.0	-0.0	-0.0	-0.0	-0.0	-0.0	-0.0	-0.0	-0.0
0.63	-0.0	-0.0	-0.0	-5.065188884735107	5.501344203948975	-606.8416137695312	-0.0	-0.0	-0.0	-0.0	-0.0	-0.0	-0.0	-0.0	-0.0	-0.0	-0.0	-0.0
0.6305000000000001	-0.0	-0.0	-0.0	-4.638946533203125	5.902105808258057	-608.4131469726562	-0.0	-0.0	-0.0	-0.0	-0.0	-0.0	-0.0	-0.0	-0.0	-0.0	-0.0	-0.0
0.631	-0.0	-0.0	-0.0	-4.310881614685059	5.9065656661987305	-606.5048828125	-0.0	-0.0	-0.0	-0.0	-0.0	-0.0	-0.0	-0.0	-0.0	-0.0	-0.0	-0.0
0.6315000000000001	-0.0	-0.0	-0.0	-4.728157043457031	5.8920722007751465	-606.1505126953125	-0.0	-0.0	-0.0	-0.0	-0.0	-0.0	-0.0	-0.0	-0.0	-0.0	-0.0	-0.0
0.632	-0.0	-0.0	-0.0	-4.357349395751953	5.868653297424316	-607.841064453125	-0.0	-0.0	-0.0	-0.0	-0.0	-0.0	-0.0	-0.0	-0.0	-0.0	-0.0	-0.0
0.6325000000000001	-0.0	-0.0	-0.0	-4.1358513832092285	6.474380493164063	-606.76318359375	-0.0	-0.0	-0.0	-0.0	-0.0	-0.0	-0.0	-0.0	-0.0	-0.0	-0.0	-0.0
0.633	-0.0	-0.0	-0.0	-4.286626815795898	5.887124538421631	-607.0984497070312	-0.0	-0.0	-0.0	-0.0	-0.0	-0.0	-0.0	-0.0	-0.0	-0.0	-0.0	-0.0
0.6335000000000001	-0.0	-0.0	-0.0	-4.4605255126953125	5.780170917510986	-606.5856323242188	-0.0	-0.0	-0.0	-0.0	-0.0	-0.0	-0.0	-0.0	-0.0	-0.0	-0.0	-0.0
0.634	-0.0	-0.0	-0.0	-4.380075454711914	4.910924434661865	-608.529052734375	-0.0	-0.0	-0.0	-0.0	-0.0	-0.0	-0.0	-0.0	-0.0	-0.0	-0.0	-0.0
0.6345000000000001	-0.0	-0.0	-0.0	-4.8001389503479	4.965482711791992	-609.2183227539062	-0.0	-0.0	-0.0	-0.0	-0.0	-0.0	-0.0	-0.0	-0.0	-0.0	-0.0	-0.0
0.635	-0.0	-0.0	-0.0	-4.889681816101074	3.904856443405152	-608.7818603515625	-0.0	-0.0	-0.0	-0.0	-0.0	-0.0	-0.0	-0.0	-0.0	-0.0	-0.0	-0.0
0.6355000000000001	-0.0	-0.0	-0.0	-4.112013816833496	3.0262722969055176	-609.3342895507812	-0.0	-0.0	-0.0	-0.0	-0.0	-0.0	-0.0	-0.0	-0.0	-0.0	-0.0	-0.0
0.636	-0.0	-0.0	-0.0	-3.981813430786133	2.665754556655884	-607.8226318359375	-0.0	-0.0	-0.0	-0.0	-0.0	-0.0	-0.0	-0.0	-0.0	-0.0	-0.0	-0.0
0.6365000000000001	-0.0	-0.0	-0.0	-2.9399380683898926	2.572765827178955	-608.544921875	-0.0	-0.0	-0.0	-0.0	-0.0	-0.0	-0.0	-0.0	-0.0	-0.0	-0.0	-0.0
0.637	-0.0	-0.0	-0.0	-2.4860427379608154	1.8023427724838257	-607.0850219726562	-0.0	-0.0	-0.0	-0.0	-0.0	-0.0	-0.0	-0.0	-0.0	-0.0	-0.0	-0.0
0.6375000000000001	-0.0	-0.0	-0.0	-1.4467052221298218	2.3794732093811035	-605.856689453125	-0.0	-0.0	-0.0	-0.0	-0.0	-0.0	-0.0	-0.0	-0.0	-0.0	-0.0	-0.0
0.638	-0.0	-0.0	-0.0	-1.0400604009628296	2.364668130874634	-607.4242553710938	-0.0	-0.0	-0.0	-0.0	-0.0	-0.0	-0.0	-0.0	-0.0	-0.0	-0.0	-0.0
0.6385000000000001	-0.0	-0.0	-0.0	0.0705358237028122	1.1736215353012085	-608.1759033203125	-0.0	-0.0	-0.0	-0.0	-0.0	-0.0	-0.0	-0.0	-0.0	-0.0	-0.0	-0.0
0.639	-0.0	-0.0	-0.0	0.6244735717773438	0.9621914625167848	-607.1163330078125	-0.0	-0.0	-0.0	-0.0	-0.0	-0.0	-0.0	-0.0	-0.0	-0.0	-0.0	-0.0
0.6395000000000001	-0.0	-0.0	-0.0	1.3165985345840454	0.3708814084529876	-609.1072998046875	-0.0	-0.0	-0.0	-0.0	-0.0	-0.0	-0.0	-0.0	-0.0	-0.0	-0.0	-0.0
0.64	-0.0	-0.0	-0.0	1.612810134887695	0.1887828409671783	-607.4833984375	-0.0	-0.0	-0.0	-0.0	-0.0	-0.0	-0.0	-0.0	-0.0	-0.0	-0.0	-0.0
